<svg xmlns="http://www.w3.org/2000/svg" xmlns:xlink="http://www.w3.org/1999/xlink" width="304" height="104" viewBox="0 0 304 104">
  <defs>
    <clipPath id="clip-path">
      <rect id="Rectangle_3367" data-name="Rectangle 3367" width="77" height="77" transform="translate(-0.441 -0.047)" fill="none" stroke="#ff6733" stroke-width="1"/>
    </clipPath>
  </defs>
  <g id="Group_6000" data-name="Group 6000" transform="translate(-8511 702)">
    <rect id="Rectangle_3379" data-name="Rectangle 3379" width="304" height="104" transform="translate(8511 -702)" fill="none"/>
    <g id="Group_5987" data-name="Group 5987" transform="translate(3 3.047)">
      <g id="Group_5970" data-name="Group 5970" transform="translate(8621.441 -690)">
        <g id="Group_5969" data-name="Group 5969" transform="translate(0 0)" clip-path="url(#clip-path)">
          <path id="Path_11696" data-name="Path 11696" d="M8.276,38.515A8.137,8.137,0,0,0,1,30.424,38.148,38.148,0,0,1,6.272,17.713,8.136,8.136,0,0,0,17.712,6.272,38.172,38.172,0,0,1,30.422,1a8.138,8.138,0,0,0,8.091,7.276A8.136,8.136,0,0,0,46.6,1,38.168,38.168,0,0,1,59.313,6.272a8.136,8.136,0,0,0,11.44,11.441,38.168,38.168,0,0,1,5.272,12.711,8.136,8.136,0,0,0,0,16.181,38.168,38.168,0,0,1-5.272,12.711,8.136,8.136,0,0,0-11.44,11.441A38.148,38.148,0,0,1,46.6,76.029a8.136,8.136,0,0,0-16.18,0,38.152,38.152,0,0,1-12.71-5.272A8.136,8.136,0,0,0,6.272,59.316,38.148,38.148,0,0,1,1,46.605,8.137,8.137,0,0,0,8.276,38.515Z" transform="translate(-0.038 -0.038)" fill="none" stroke="#ff6733" stroke-linecap="round" stroke-linejoin="round" stroke-width="2"/>
          <circle id="Ellipse_356" data-name="Ellipse 356" cx="17.676" cy="17.676" r="17.676" transform="translate(20.801 20.802)" fill="none" stroke="#ff6733" stroke-linecap="round" stroke-linejoin="round" stroke-width="2"/>
          <path id="Path_11697" data-name="Path 11697" d="M49.494,39.61A9.885,9.885,0,1,0,39.609,49.5,9.886,9.886,0,0,0,49.494,39.61Z" transform="translate(-1.132 -1.132)" fill="none" stroke="#ff6733" stroke-linecap="round" stroke-linejoin="round" stroke-width="2"/>
        </g>
      </g>
      <g id="Group_5982" data-name="Group 5982" transform="translate(8582.003 -688.077)">
        <path id="Path_11713" data-name="Path 11713" d="M13.024,421.755h0a12.024,12.024,0,0,0,12.024-12.024v-5.56a12.024,12.024,0,1,0-24.048,0v5.56A12.025,12.025,0,0,0,13.024,421.755Z" transform="translate(-1 -392.147)" fill="none" stroke="#ff6733" stroke-linecap="round" stroke-linejoin="round" stroke-width="2"/>
        <path id="Path_11714" data-name="Path 11714" d="M13.259,468.7h0a6.091,6.091,0,0,1-6.092-6.092V438.239a6.092,6.092,0,0,1,12.184,0v24.369A6.091,6.091,0,0,1,13.259,468.7Z" transform="translate(-1.235 -393.67)" fill="none" stroke="#ff6733" stroke-linecap="round" stroke-linejoin="round" stroke-width="2"/>
        <line id="Line_579" data-name="Line 579" y1="9.289" transform="translate(9.439 29.608)" fill="none" stroke="#ff6733" stroke-linecap="round" stroke-linejoin="round" stroke-width="2"/>
        <line id="Line_580" data-name="Line 580" y1="9.289" transform="translate(14.609 29.608)" fill="none" stroke="#ff6733" stroke-linecap="round" stroke-linejoin="round" stroke-width="2"/>
      </g>
      <g id="Group_5981" data-name="Group 5981" transform="translate(8713.78 -688.077)">
        <path id="Path_11715" data-name="Path 11715" d="M48.488,468.7h0a6.091,6.091,0,0,1-6.092-6.092V438.239a6.092,6.092,0,0,1,12.184,0v24.369A6.091,6.091,0,0,1,48.488,468.7Z" transform="translate(-36.463 -393.67)" fill="none" stroke="#ff6733" stroke-linecap="round" stroke-linejoin="round" stroke-width="2"/>
        <line id="Line_581" data-name="Line 581" y1="9.289" transform="translate(9.439 29.608)" fill="none" stroke="#ff6733" stroke-linecap="round" stroke-linejoin="round" stroke-width="2"/>
        <line id="Line_582" data-name="Line 582" y1="9.289" transform="translate(14.609 29.608)" fill="none" stroke="#ff6733" stroke-linecap="round" stroke-linejoin="round" stroke-width="2"/>
        <path id="Path_11716" data-name="Path 11716" d="M55.387,394.592v11.323a2.345,2.345,0,0,1-4.689,0V394.592a2.445,2.445,0,1,0-4.889,0v11.323a2.345,2.345,0,0,1-4.689,0V394.592a2.445,2.445,0,1,0-4.89,0v14.74a12.285,12.285,0,0,0,11.8,12.42,12.023,12.023,0,0,0,12.249-12.021v-15.14a2.445,2.445,0,1,0-4.889,0Z" transform="translate(-36.229 -392.147)" fill="none" stroke="#ff6733" stroke-linecap="round" stroke-linejoin="round" stroke-width="2"/>
      </g>
    </g>
  </g>
</svg>
