<svg xmlns="http://www.w3.org/2000/svg" width="304" height="104" viewBox="0 0 304 104">
  <g id="Group_5999" data-name="Group 5999" transform="translate(-8511 816)">
    <rect id="Rectangle_3376" data-name="Rectangle 3376" width="304" height="104" transform="translate(8511 -816)" fill="none"/>
    <g id="Group_5986" data-name="Group 5986" transform="translate(5.998 5.507)">
      <g id="Group_47" data-name="Group 47" transform="translate(8623.003 -808.786)">
        <rect id="Rectangle_26" data-name="Rectangle 26" width="68.882" height="79.378" rx="2.475" transform="translate(0)" fill="none" stroke="#ff6733" stroke-linecap="round" stroke-linejoin="round" stroke-width="2"/>
        <rect id="Rectangle_27" data-name="Rectangle 27" width="53.322" height="63.658" transform="translate(7.781 7.811)" fill="none" stroke="#ff6733" stroke-linecap="round" stroke-linejoin="round" stroke-width="2"/>
      </g>
      <path id="Path_76" data-name="Path 76" d="M21.086,29.727h0a4.167,4.167,0,1,1,4.166-4.167A4.167,4.167,0,0,1,21.086,29.727Z" transform="translate(8623.164 -808.408)" fill="#ffc4b1"/>
      <line id="Line_17" data-name="Line 17" x2="17.218" transform="translate(8657.401 -782.849)" fill="none" stroke="#ff6733" stroke-linecap="round" stroke-linejoin="round" stroke-width="2"/>
      <path id="Path_77" data-name="Path 77" d="M21.086,44.648h0a4.167,4.167,0,1,1,4.166-4.167A4.167,4.167,0,0,1,21.086,44.648Z" transform="translate(8623.164 -808.144)" fill="#ff9775"/>
      <line id="Line_18" data-name="Line 18" x2="17.218" transform="translate(8657.401 -767.664)" fill="none" stroke="#ff6733" stroke-linecap="round" stroke-linejoin="round" stroke-width="2"/>
      <path id="Path_78" data-name="Path 78" d="M21.086,59.569h0A4.167,4.167,0,1,1,25.253,55.4,4.167,4.167,0,0,1,21.086,59.569Z" transform="translate(8623.164 -807.881)" fill="#ff6733"/>
      <line id="Line_19" data-name="Line 19" x2="17.218" transform="translate(8657.401 -752.479)" fill="none" stroke="#ff6733" stroke-linecap="round" stroke-linejoin="round" stroke-width="2"/>
      <path id="Path_79" data-name="Path 79" d="M15.515,1.355V9.874a3.7,3.7,0,0,0,3.733,3.671H43.129a3.7,3.7,0,0,0,3.733-3.671V1.355" transform="translate(8627.554 -808.762)" fill="none" stroke="#ff6733" stroke-linecap="round" stroke-linejoin="round" stroke-width="2"/>
    </g>
  </g>
</svg>
